<svg xmlns="http://www.w3.org/2000/svg" viewBox="0 0 416 448"><defs><style>.cls-1{fill:#fff;}</style></defs><title>branding_1</title><g id="Capa_2" data-name="Capa 2"><g id="Capa_1-2" data-name="Capa 1"><path class="cls-1" d="M408,128a8,8,0,0,0,8-8V40a8,8,0,0,0-8-8H360V8a8,8,0,0,0-8-8H64a8,8,0,0,0-8,8V208H8a8,8,0,0,0-8,8V440a8,8,0,0,0,8,8H408a8,8,0,0,0,8-8V296a8,8,0,0,0-8-8H360V272h48a8,8,0,0,0,8-8V216a8,8,0,0,0-8-8H360V192h48a8,8,0,0,0,8-8V152a8,8,0,0,0-8-8H360V128Zm-8-16H272V48H400Zm0,320H160V335.12A55.81,55.81,0,0,0,200,352H360a55.81,55.81,0,0,0,40-16.88ZM160.8,304H399.2A40.07,40.07,0,0,1,360,336H200a40.07,40.07,0,0,1-39.2-32ZM400,256H336V224h64Zm-88,0a8,8,0,0,1-8-8V224h16v32Zm88-80H304V160h96Zm-158.11,0-16-8,16-8H288v16ZM344,144H240a8,8,0,0,0-3.57.84L206.11,160H192v16h14.11l30.31,15.2a8,8,0,0,0,3.57.8H344v16H296a8,8,0,0,0-8,8v32a24,24,0,0,0,24,24h32v16H152a8,8,0,0,0-8,8V432H16V224H256v48h16V216a8,8,0,0,0-8-8H72V16H344V32H264a8,8,0,0,0-8,8v80a8,8,0,0,0,8,8h80Zm0,0"/><rect class="cls-1" x="288" y="64" width="16" height="16"/><rect class="cls-1" x="88" y="32" width="16" height="16"/><rect class="cls-1" x="32" y="240" width="16" height="16"/><rect class="cls-1" x="120" y="32" width="64" height="16"/><rect class="cls-1" x="64" y="240" width="64" height="16"/><rect class="cls-1" x="176" y="400" width="16" height="16"/><rect class="cls-1" x="208" y="400" width="64" height="16"/><rect class="cls-1" x="320" y="64" width="64" height="16"/></g></g></svg>