<svg xmlns="http://www.w3.org/2000/svg" viewBox="0 0 292 165.48"><defs><style>.cls-1{fill:#fff;}</style></defs><title>computo2</title><g id="Capa_2" data-name="Capa 2"><g id="Capa_3" data-name="Capa 3"><rect class="cls-1" x="90.94" y="74.32" width="201.06" height="7.86"/><rect class="cls-1" x="243.53" y="117" width="89.09" height="7.86" transform="translate(409 -167.14) rotate(90)"/><path class="cls-1" d="M85.49,93.64H78.56a6.76,6.76,0,0,0,0,13.52h.77v13.29a5.53,5.53,0,0,1-5.27,5.47A9.66,9.66,0,0,0,64.81,119H59.13V106.86h1.72a7.48,7.48,0,0,0,7.41-8.52l-2.91-20.7a7.52,7.52,0,0,0-7.41-6.44H34.31a7.52,7.52,0,0,0-7.41,6.44L24,98.34a7.48,7.48,0,0,0,7.41,8.52h1.72V119H27.44a9.66,9.66,0,0,0-9.25,6.93,5.53,5.53,0,0,1-5.27-5.47V107.16h.77a6.76,6.76,0,0,0,0-13.52H6.76a6.76,6.76,0,0,0,0,13.52h.75v13.29a10.94,10.94,0,0,0,10.67,10.87,9.66,9.66,0,0,0,9.26,6.95h16v6.78H35.08a15.62,15.62,0,0,0-15.61,15.61,2.7,2.7,0,0,0,5.41,0,10.21,10.21,0,0,1,10.2-10.2h8.34v10.2a2.7,2.7,0,0,0,5.41,0v-10.2h8.61a10.21,10.21,0,0,1,10.2,10.2,2.7,2.7,0,0,0,5.41,0,15.62,15.62,0,0,0-15.61-15.61H48.83v-6.78h16a9.66,9.66,0,0,0,9.26-6.95,10.94,10.94,0,0,0,10.67-10.87V107.16h.75a6.76,6.76,0,0,0,0-13.52Zm-47,13.22h15.2V119H38.53V106.87Z"/><rect class="cls-1" x="96.36" y="141.35" width="54.91" height="24.04"/><rect class="cls-1" x="112.79" y="147.13" width="22.22" height="12.48" rx="1.25" ry="1.25"/><rect class="cls-1" x="115.68" y="150.83" width="16.26" height="5.09"/><rect class="cls-1" x="96.36" y="113.61" width="54.91" height="24.04"/><rect class="cls-1" x="112.79" y="119.39" width="22.22" height="12.48" rx="1.25" ry="1.25"/><rect class="cls-1" x="115.68" y="123.09" width="16.26" height="5.09"/><rect class="cls-1" x="96.36" y="85.88" width="54.91" height="24.04"/><rect class="cls-1" x="112.79" y="91.65" width="22.22" height="12.48" rx="1.25" ry="1.25"/><rect class="cls-1" x="115.68" y="95.35" width="16.26" height="5.09"/><path class="cls-1" d="M271.38,61.94a4.93,4.93,0,0,0-.39-.52l-.07-.1-.05-.06a4.79,4.79,0,0,0-.35-.35l-.36-.3-.05,0-.27-.18h0l12-11.93a5,5,0,0,0,1.4,1.42l-11.9,12.06Zm-4.55-33.15.61-.61h0l.08-.08a5.78,5.78,0,0,0,.68-.81l15.12,14.33h0a5,5,0,0,0-1.46,1.46l-15-14.28Zm-8.18,12.38-.7.7-12.6-12.6.7-.7a8.92,8.92,0,0,1,10.69-1.44l.18.1q.38.22.73.49l.2.15a8.11,8.11,0,0,1,1.51,1.51l.15.2a8.49,8.49,0,0,1,.49.73l.1.18a8.91,8.91,0,0,1-1.44,10.69ZM286,40.82a4.79,4.79,0,0,0-.59.06L269,25.32a5.93,5.93,0,0,0-10-5.53l-4.4,4.45a10.88,10.88,0,0,0-10,2.94l-1.4,1.4a1,1,0,0,0,0,1.4l2.59,2.59a6.9,6.9,0,0,0,8.83,8.83L257.25,44a1,1,0,0,0,1.4,0l1.4-1.4a10.89,10.89,0,0,0,2.94-10l2.43-2.41,15.71,14.92a3.3,3.3,0,0,0,0,1.31l-13.4,13.26a4.65,4.65,0,0,0-.53-.05,4.93,4.93,0,0,0-3.94,7.92h-8.94a3,3,0,1,0,0,5.94h25.74a3,3,0,1,0,0-5.94h-8.94a4.9,4.9,0,0,0,1-3,4.66,4.66,0,0,0-.06-.54l13.21-13.39a4.85,4.85,0,0,0,.7.07,5,5,0,0,0,0-9.9Z"/><rect class="cls-1" x="99.16" y="2.94" width="41.07" height="70.37"/><rect class="cls-1" x="104.91" y="11.73" width="29.45" height="5.99"/><rect class="cls-1" x="110.98" y="26.36" width="17.29" height="3.12"/><circle class="cls-1" cx="131.42" cy="60.84" r="4.03"/><rect class="cls-1" x="160.66" width="73.3" height="58.64"/><rect class="cls-1" x="166.53" y="5.87" width="61.58" height="38.11"/><circle class="cls-1" cx="198.62" cy="50.76" r="3.84"/><rect class="cls-1" x="181.19" y="61.58" width="32.26" height="5.85"/><rect class="cls-1" x="175.32" y="67.43" width="43.98" height="5.87"/></g></g></svg>