<svg xmlns="http://www.w3.org/2000/svg" viewBox="0 0 100.11 100.11"><defs><style>.cls-1{fill:#fff;}</style></defs><title>github2</title><g id="Capa_2" data-name="Capa 2"><g id="Capa_1-2" data-name="Capa 1"><path class="cls-1" d="M36.11,80.5c-.69.13-1,.46-.91,1s.48.7,1.18.52,1-.48.91-.91-.48-.68-1.17-.59Zm0,0"/><path class="cls-1" d="M32.39,81q-1,0-1,.72c0,.56.37.8,1.11.72s1-.24,1-.72-.37-.8-1.11-.72Zm0,0"/><path class="cls-1" d="M27.31,80.82c-.17.48.11.8.85,1s1.07.13,1.24-.39-.15-.82-.85-1-1.06,0-1.24.46Zm0,0"/><path class="cls-1" d="M94.6,5.51A18.07,18.07,0,0,0,81.34,0H18.77A18.08,18.08,0,0,0,5.51,5.51,18.08,18.08,0,0,0,0,18.77V81.34A18.07,18.07,0,0,0,5.51,94.6a18.08,18.08,0,0,0,13.26,5.51h14.6a18,18,0,0,0,2.15-.09A2.54,2.54,0,0,0,37,99.17,3,3,0,0,0,37.67,97q0-.19,0-4.43t0-6.71l-1.5.26a19.54,19.54,0,0,1-3.62.23A27.78,27.78,0,0,1,28,85.87a10.15,10.15,0,0,1-4.37-2,8.26,8.26,0,0,1-2.87-4l-.65-1.5A16,16,0,0,0,18,75.09a7.86,7.86,0,0,0-2.83-2.48l-.46-.33a4.73,4.73,0,0,1-.85-.78,3.54,3.54,0,0,1-.59-.91c-.13-.31,0-.55.32-.75a4.22,4.22,0,0,1,1.89-.29l1.3.2A9.57,9.57,0,0,1,20,71.3a10.51,10.51,0,0,1,3.16,3.39,11.47,11.47,0,0,0,3.62,4.07,7.68,7.68,0,0,0,4.27,1.4,18.62,18.62,0,0,0,3.72-.33,12.87,12.87,0,0,0,2.93-1,10.55,10.55,0,0,1,3.19-6.71A44.44,44.44,0,0,1,34.25,71a26.35,26.35,0,0,1-6.12-2.54,17.54,17.54,0,0,1-5.25-4.37,21,21,0,0,1-3.42-6.84,32.52,32.52,0,0,1-1.34-9.78A19,19,0,0,1,23.27,34q-2.41-5.93.45-13.3,1.89-.59,5.6.88a39.52,39.52,0,0,1,5.45,2.51q1.73,1,2.77,1.76a47.12,47.12,0,0,1,25,0L65,24.31a34.93,34.93,0,0,1,6-2.87q3.45-1.31,5.28-.72,2.94,7.37.52,13.3A19,19,0,0,1,82,47.45a32.87,32.87,0,0,1-1.34,9.81,20.24,20.24,0,0,1-3.45,6.84,18.22,18.22,0,0,1-5.28,4.33A26.38,26.38,0,0,1,65.8,71a44.59,44.59,0,0,1-6.68,1.18q3.39,2.93,3.39,9.25V97a4.18,4.18,0,0,0,.32,1.79,1.8,1.8,0,0,0,1,.95,5.79,5.79,0,0,0,1.27.32,14.62,14.62,0,0,0,1.59.07h14.6a18.81,18.81,0,0,0,18.77-18.77V18.77A18.08,18.08,0,0,0,94.6,5.51Zm0,0"/><path class="cls-1" d="M19.81,72.87c-.3.21-.26.56.13,1s.78.5,1,.19.26-.56-.13-1-.78-.45-1-.19Zm0,0"/><path class="cls-1" d="M17.66,71.24q-.19.46.46.79a.56.56,0,0,0,.85-.13q.19-.45-.46-.78c-.43-.13-.72-.09-.85.13Zm0,0"/><path class="cls-1" d="M21.84,75.41c-.39.22-.39.61,0,1.18s.76.71,1.11.45.39-.71,0-1.24-.71-.69-1.11-.39Zm0,0"/><path class="cls-1" d="M24.12,78.34c-.39.35-.31.76.26,1.24s1,.59,1.3.19.26-.76-.26-1.24-1-.59-1.3-.2Zm0,0"/></g></g></svg>