<svg xmlns="http://www.w3.org/2000/svg" viewBox="0 0 383.74 512"><defs><style>.cls-1{fill:#fff;}</style></defs><title>invoiceok</title><g id="Capa_2" data-name="Capa 2"><g id="Capa_1-2" data-name="Capa 1"><path class="cls-1" d="M376.24,120.24a7.5,7.5,0,0,0-7.5,7.5V496.49a.52.52,0,0,1-.52.52H15.52a.52.52,0,0,1-.52-.52v-481a.52.52,0,0,1,.52-.52h265V87.66a15.53,15.53,0,0,0,15.52,15.52h80.16a7.5,7.5,0,0,0,5.3-12.8L293.37,2.2,293.18,2h0a7.48,7.48,0,0,0-5-2H15.52A15.54,15.54,0,0,0,0,15.52v481A15.53,15.53,0,0,0,15.52,512H368.23a15.53,15.53,0,0,0,15.52-15.52V127.74A7.5,7.5,0,0,0,376.24,120.24ZM295.56,25.61l62.57,62.57H296.08a.52.52,0,0,1-.52-.52Z"/><path class="cls-1" d="M71.11,118.22a7.5,7.5,0,0,0-15,0c0,12,10.1,21.74,24,24.34v1.21a7.5,7.5,0,0,0,15,0v-1.21c14-2.61,24-12.37,24-24.35,0-16.74-13.37-23.77-24-27.82V64.26c5.55,1.82,9,5.48,9,8.88a7.5,7.5,0,0,0,15,0c0-12-10.1-21.74-24-24.35V47.58a7.5,7.5,0,0,0-15,0v1.21c-14,2.61-24,12.36-24,24.35,0,16.74,13.37,23.77,24,27.82V127.1C74.61,125.29,71.11,121.62,71.11,118.22Zm33.1,0c0,3.4-3.49,7.06-9,8.88V106.77C102.68,110.44,104.21,113.66,104.21,118.22ZM71.11,73.13c0-3.4,3.49-7.06,9-8.88V84.59C72.64,80.91,71.11,77.7,71.11,73.13Z"/><path class="cls-1" d="M335.64,183.86a7.5,7.5,0,0,0-7.5-7.5H55.6a7.5,7.5,0,0,0-7.5,7.5V328.15a7.5,7.5,0,0,0,7.5,7.5H328.15a7.5,7.5,0,0,0,7.5-7.5V183.86Zm-128.26,88.7v-33.1h49.13v33.1Zm49.13,15v33.1H207.39v-33.1ZM63.1,239.45H192.39v33.1H63.1Zm144.29-15v-33.1h49.13v33.1Zm64.13,15h49.13v33.1H271.52Zm49.13-15H271.52v-33.1h49.13Zm-128.26-33.1v33.1H63.1v-33.1ZM63.1,287.55H192.39v33.1H63.1Zm208.42,33.1v-33.1h49.13v33.1Z"/><path class="cls-1" d="M144.29,408.31a47.58,47.58,0,1,0,47.58-47.58A47.64,47.64,0,0,0,144.29,408.31Zm80.16,0a32.58,32.58,0,1,1-32.58-32.58A32.62,32.62,0,0,1,224.45,408.31Z"/><path class="cls-1" d="M176.35,408.31a15.52,15.52,0,1,0,15.52-15.52A15.53,15.53,0,0,0,176.35,408.31Z"/><path class="cls-1" d="M119.73,384.78H55.6a7.5,7.5,0,1,0,0,15h64.13a7.5,7.5,0,0,0,0-15Z"/><path class="cls-1" d="M119.73,416.84H71.63a7.5,7.5,0,0,0,0,15h48.1a7.5,7.5,0,0,0,0-15Z"/><path class="cls-1" d="M320.13,376.76H272a15.53,15.53,0,0,0-15.52,15.52v32.06A15.53,15.53,0,0,0,272,439.86h48.1a15.53,15.53,0,0,0,15.52-15.52V392.28A15.54,15.54,0,0,0,320.13,376.76Zm.52,47.58a.52.52,0,0,1-.52.52H272a.52.52,0,0,1-.52-.52V392.28a.52.52,0,0,1,.52-.52h48.1a.52.52,0,0,1,.52.52v32.06Z"/><path class="cls-1" d="M232,71.11a7.5,7.5,0,0,0,0-15h-16a7.5,7.5,0,0,0,0,15Z"/><path class="cls-1" d="M151.79,71.11h32.06a7.5,7.5,0,0,0,0-15H151.79a7.5,7.5,0,0,0,0,15Z"/><path class="cls-1" d="M151.79,103.18H256a7.5,7.5,0,0,0,0-15H151.79a7.5,7.5,0,0,0,0,15Z"/><path class="cls-1" d="M256,120.24H240a7.5,7.5,0,0,0,0,15h16a7.5,7.5,0,0,0,0-15Z"/><path class="cls-1" d="M151.79,135.24H207.9a7.5,7.5,0,0,0,0-15H151.79a7.5,7.5,0,0,0,0,15Z"/></g></g></svg>