<svg xmlns="http://www.w3.org/2000/svg" xmlns:xlink="http://www.w3.org/1999/xlink" viewBox="0 0 1315.5 461.52"><defs><style>.cls-1{fill:#fff;}.cls-2{fill:url(#Degradado_sin_nombre_174);}.cls-3{fill:url(#Degradado_sin_nombre_174-2);}.cls-4{fill:url(#Degradado_sin_nombre_4);}</style><linearGradient id="Degradado_sin_nombre_174" x1="458.72" y1="91.51" x2="856.45" y2="370.01" gradientUnits="userSpaceOnUse"><stop offset="0" stop-color="#007fff"/><stop offset="1" stop-color="#007fff"/></linearGradient><linearGradient id="Degradado_sin_nombre_174-2" x1="364.07" y1="380.89" x2="65.45" y2="82.26" xlink:href="#Degradado_sin_nombre_174"/><linearGradient id="Degradado_sin_nombre_4" x1="1250.05" y1="82.26" x2="951.43" y2="380.89" xlink:href="#Degradado_sin_nombre_174"/></defs><title>logo-daguilera</title><g id="Capa_2" data-name="Capa 2"><g id="Capa_5" data-name="Capa 5"><path class="cls-1" d="M584.43,271.22c-22.56,28-65.31,28.56-65.31,28.56l-66.56-.17V70.38H337.92V391.13H538.84C586.18,386,621,373.3,646.55,357.44,613.16,335,590.5,304.87,584.43,271.22Z"/><path class="cls-2" d="M794.82,296.79s-71.26,4.55-77.25-56.19V223.9q.23-2.36.6-4.61c.1-1.77.16-3.54.16-5.33,0-37-19.89-70.71-52.64-96.4-52-44.49-123.15-47.18-123.15-47.18h-69v94.34h46.84s71.26-4.55,77.25,56.19v16.71q-.23,2.36-.6,4.61c-.1,1.77-.16,3.54-.16,5.33,0,37,19.89,70.71,52.64,96.4,52,44.49,123.15,47.18,123.15,47.18h69V296.79Z"/><path class="cls-1" d="M862.62,70.38H776.33c-47.33,5.1-82.12,17.84-107.71,33.69,33.39,22.48,56,52.57,62.12,86.22,22.56-28,65.31-28.56,65.31-28.56l66.56.17V391.13H977.25V70.38Z"/><polygon class="cls-3" points="283.44 461.52 138.45 461.52 0 231.1 147.72 0 289.44 0 144.45 230.41 283.44 461.52"/><polygon class="cls-4" points="1032.06 461.52 1177.05 461.52 1315.5 231.1 1167.79 0 1026.06 0 1171.06 230.41 1032.06 461.52"/></g></g></svg>