<svg xmlns="http://www.w3.org/2000/svg" viewBox="0 0 512 444"><defs><style>.cls-1{fill:#fff;}.cls-2{fill:none;}</style></defs><title>picture</title><g id="Capa_2" data-name="Capa 2"><g id="Capa_1-2" data-name="Capa 1"><path class="cls-1" d="M414.25,50a51.53,51.53,0,1,0,51.53,51.53A51.58,51.58,0,0,0,414.25,50Zm0,88.05a36.53,36.53,0,1,1,36.53-36.53,36.57,36.57,0,0,1-36.53,36.53Zm0,0"/><path class="cls-1" d="M472.76.93H93.11A38.28,38.28,0,0,0,54.87,39.17V58H38.25A38.29,38.29,0,0,0,0,96.24V405.1a38.29,38.29,0,0,0,38.25,38.25H289.5a7.5,7.5,0,0,0,0-15H38.25A23.27,23.27,0,0,1,15,405.1V96.24A23.28,23.28,0,0,1,38.25,73H54.87V348a38.28,38.28,0,0,0,38.24,38.24h348V405.1a23.27,23.27,0,0,1-23.25,23.25H337a7.5,7.5,0,0,0,0,15h80.89a38.28,38.28,0,0,0,38.24-38.25V386.29h16.62A38.29,38.29,0,0,0,511,348V39.17A38.29,38.29,0,0,0,472.76.93ZM496,282.31,396,169.64a12.5,12.5,0,0,0-18.19-.55l-62,62-81.95-92.35a12.5,12.5,0,0,0-18.18-.54l-58.11,58.08a7.5,7.5,0,1,0,10.6,10.6l56.24-56.21L331,270.68a7.5,7.5,0,1,0,11.22-10L325.83,242.3l60.75-60.72L496,304.91V348a23.27,23.27,0,0,1-23.25,23.25H93.11A23.27,23.27,0,0,1,69.87,348V305.16l66-65.92a7.5,7.5,0,1,0-10.61-10.61L69.87,284V39.17A23.27,23.27,0,0,1,93.11,15.93H472.76A23.27,23.27,0,0,1,496,39.17Zm0,0"/><rect class="cls-2" x="1" width="511" height="444"/></g></g></svg>