<svg xmlns="http://www.w3.org/2000/svg" viewBox="0 0 480 480"><title>Recurso 1</title><g id="Capa_2" data-name="Capa 2"><g id="Capa_1-2" data-name="Capa 1"><path d="M440,160a8,8,0,0,0,8-8V72a8,8,0,0,0-8-8H392V40a8,8,0,0,0-8-8H96a8,8,0,0,0-8,8V240H40a8,8,0,0,0-8,8V472a8,8,0,0,0,8,8H440a8,8,0,0,0,8-8V328a8,8,0,0,0-8-8H392V304h48a8,8,0,0,0,8-8V248a8,8,0,0,0-8-8H392V224h48a8,8,0,0,0,8-8V184a8,8,0,0,0-8-8H392V160Zm-8-16H304V80H432Zm0,320H192V367.12A55.81,55.81,0,0,0,232,384H392a55.81,55.81,0,0,0,40-16.88ZM192.8,336H431.2A40.07,40.07,0,0,1,392,368H232a40.07,40.07,0,0,1-39.2-32ZM432,288H368V256h64Zm-88,0a8,8,0,0,1-8-8V256h16v32Zm88-80H336V192h96Zm-158.11,0-16-8,16-8H320v16ZM376,176H272a8,8,0,0,0-3.57.84L238.11,192H224v16h14.11l30.31,15.2a8,8,0,0,0,3.57.8H376v16H328a8,8,0,0,0-8,8v32a24,24,0,0,0,24,24h32v16H184a8,8,0,0,0-8,8V464H48V256H288v48h16V248a8,8,0,0,0-8-8H104V48H376V64H296a8,8,0,0,0-8,8v80a8,8,0,0,0,8,8h80Zm0,0"/><rect x="320" y="96" width="16" height="16"/><rect x="120" y="64" width="16" height="16"/><rect x="64" y="272" width="16" height="16"/><rect x="152" y="64" width="64" height="16"/><rect x="96" y="272" width="64" height="16"/><rect x="208" y="432" width="16" height="16"/><rect x="240" y="432" width="64" height="16"/><rect x="352" y="96" width="64" height="16"/><rect y="328" width="16" height="128"/><path d="M88,16H224V0H88A32,32,0,0,0,56,32V88H72V32A16,16,0,0,1,88,16Zm0,0"/><rect x="240" width="16" height="16"/><rect x="464" y="192" width="16" height="160"/></g></g></svg>