<svg xmlns="http://www.w3.org/2000/svg" viewBox="0 0 317.2 243.01"><defs><style>.cls-1{fill:#fff;}</style></defs><title>responsive-Design</title><g id="Capa_2" data-name="Capa 2"><g id="Capa_1-2" data-name="Capa 1"><path class="cls-1" d="M243.53,227.63H209a2.28,2.28,0,0,1-2.27-2.27v-8.41a2.28,2.28,0,0,0-2.27-2.27H156a2.28,2.28,0,0,0-2.27,2.27v8.41a2.28,2.28,0,0,1-2.26,2.27h-26a2.27,2.27,0,0,0-2.27,2.27v9.73a2.28,2.28,0,0,0,2.27,2.27h118a2.28,2.28,0,0,0,2.27-2.27v-9.73a2.27,2.27,0,0,0-2.27-2.27Zm0,0"/><path class="cls-1" d="M301.62,0H54.91A15.58,15.58,0,0,0,39.34,15.57V56.18c0,5.37-.4,6.13,3.2,6.13h6.18c3,0,2.4-.76,2.4-6.23V15.57a3.84,3.84,0,0,1,3.79-3.79H301.62a3.84,3.84,0,0,1,3.79,3.79v152H129.52s-6.2,0-6.2,8v19c0,8,6.4,8,6.4,8H301.62A15.59,15.59,0,0,0,317.2,187V15.57A15.59,15.59,0,0,0,301.62,0ZM178.27,189.15a7,7,0,1,1,7-7,7,7,0,0,1-7,7Zm0,0"/><path class="cls-1" d="M99.3,76.21H10A10.06,10.06,0,0,0,0,86.26V233a10.06,10.06,0,0,0,10,10H99.3a10.06,10.06,0,0,0,10-10V86.26a10.06,10.06,0,0,0-10-10.05ZM43.66,86.46h22a1.9,1.9,0,0,1,0,3.81h-22a1.9,1.9,0,0,1,0-3.81ZM54.54,235.95a5.2,5.2,0,1,1,5.2-5.2,5.2,5.2,0,0,1-5.2,5.2Zm46.18-15.29a2.42,2.42,0,0,1-2.38,2.44H11a2.42,2.42,0,0,1-2.38-2.44V98.76A2.42,2.42,0,0,1,11,96.33H98.33a2.42,2.42,0,0,1,2.38,2.44Zm0,0"/></g></g></svg>